<svg width="247" height="249" viewBox="0 0 247 249" fill="none" xmlns="http://www.w3.org/2000/svg">
<path d="M124 5C190.274 5 244 58.7258 244 125C244 191.274 190.274 245 124 245C57.7258 245 4 191.274 4 125C4 58.7258 57.7258 5 124 5ZM124.52 26.8184C70.0083 26.8184 25.8184 71.0083 25.8184 125.52C25.8184 180.031 70.0083 224.221 124.52 224.221C179.031 224.221 223.221 180.031 223.221 125.52C223.221 71.0083 179.031 26.8184 124.52 26.8184Z" fill="#769173"/>
<path d="M122.325 154.396C167.017 154.397 203.247 173.829 203.247 197.8C203.247 221.771 167.017 241.204 122.325 241.204C77.6331 241.204 41.4023 221.771 41.4023 197.8C41.4028 173.829 77.6334 154.396 122.325 154.396ZM109.083 180.88C105.833 180.88 103.197 183.515 103.197 186.766C103.197 190.016 105.833 192.65 109.083 192.65C112.333 192.65 114.968 190.016 114.968 186.766C114.968 183.515 112.333 180.88 109.083 180.88ZM132.624 180.88C129.374 180.88 126.738 183.515 126.738 186.766C126.738 190.016 129.374 192.65 132.624 192.65C135.874 192.65 138.509 190.016 138.509 186.766C138.509 183.515 135.874 180.88 132.624 180.88Z" fill="#769173"/>
<ellipse cx="153.686" cy="119.724" rx="20.3714" ry="35.9589" transform="rotate(19.8281 153.686 119.724)" fill="#769173"/>
<ellipse cx="177.055" cy="115.85" rx="16.8271" ry="34.0877" transform="rotate(-29.3103 177.055 115.85)" fill="#769173"/>
<ellipse cx="84.6813" cy="102.983" rx="20.3714" ry="53.7395" transform="rotate(-19.83 84.6813 102.983)" fill="#769173"/>
<path d="M122.324 127.913C143.786 127.913 164.369 135.199 179.545 148.167C194.721 161.135 203.247 178.724 203.247 197.064H41.4023C41.4024 178.725 49.928 161.135 65.1035 148.167C80.2792 135.199 100.863 127.913 122.324 127.913ZM109.083 180.88C105.833 180.88 103.197 183.515 103.197 186.766C103.197 190.016 105.833 192.65 109.083 192.65C112.333 192.65 114.968 190.016 114.968 186.766C114.968 183.515 112.333 180.88 109.083 180.88ZM132.624 180.88C129.374 180.88 126.738 183.515 126.738 186.766C126.738 190.016 129.374 192.65 132.624 192.65C135.874 192.65 138.509 190.016 138.509 186.766C138.509 183.515 135.874 180.88 132.624 180.88Z" fill="#769173"/>
</svg>
