<svg width="247" height="249" viewBox="0 0 247 249" fill="none" xmlns="http://www.w3.org/2000/svg">
<path d="M124 41C170.392 41 208 78.6081 208 125C208 171.392 170.392 209 124 209C77.6081 209 40 171.392 40 125C40 78.6081 77.6081 41 124 41ZM124 53C84.2355 53 52 85.2355 52 125C52 164.765 84.2355 197 124 197C163.765 197 196 164.765 196 125C196 85.2355 163.765 53 124 53Z" fill="#769173"/>
<path d="M125 147C155.376 147 180 160.208 180 176.5C180 192.792 155.376 206 125 206C94.6243 206 70 192.792 70 176.5C70 160.208 94.6243 147 125 147ZM116 165C113.791 165 112 166.791 112 169C112 171.209 113.791 173 116 173C118.209 173 120 171.209 120 169C120 166.791 118.209 165 116 165ZM132 165C129.791 165 128 166.791 128 169C128 171.209 129.791 173 132 173C134.209 173 136 171.209 136 169C136 166.791 134.209 165 132 165Z" fill="#769173"/>
<ellipse cx="146.315" cy="123.434" rx="13.8457" ry="24.44" transform="rotate(19.8281 146.315 123.434)" fill="#769173"/>
<ellipse cx="162.199" cy="120.801" rx="11.4368" ry="23.1682" transform="rotate(-29.3103 162.199 120.801)" fill="#769173"/>
<ellipse cx="99.4151" cy="112.056" rx="13.8457" ry="36.5249" transform="rotate(-19.83 99.4151 112.056)" fill="#769173"/>
<path d="M125 129C139.587 129 153.576 133.952 163.891 142.766C174.205 151.58 180 163.535 180 176H70C70 163.535 75.7949 151.58 86.1094 142.766C96.4238 133.952 110.413 129 125 129ZM116 165C113.791 165 112 166.791 112 169C112 171.209 113.791 173 116 173C118.209 173 120 171.209 120 169C120 166.791 118.209 165 116 165ZM132 165C129.791 165 128 166.791 128 169C128 171.209 129.791 173 132 173C134.209 173 136 171.209 136 169C136 166.791 134.209 165 132 165Z" fill="#769173"/>
</svg>
