<svg width="247" height="249" viewBox="0 0 247 249" fill="none" xmlns="http://www.w3.org/2000/svg">
<path d="M123.5 9C187.289 9 239 60.7111 239 124.5C239 188.289 187.289 240 123.5 240C59.7111 240 8 188.289 8 124.5C8 60.7111 59.7111 9 123.5 9ZM123.5 25.5C68.8238 25.5 24.5 69.8238 24.5 124.5C24.5 179.176 68.8238 223.5 123.5 223.5C178.176 223.5 222.5 179.176 222.5 124.5C222.5 69.8238 178.176 25.5 123.5 25.5Z" fill="#769173"/>
<path d="M124.875 154.75C166.642 154.75 200.5 172.91 200.5 195.312C200.5 217.715 166.642 235.875 124.875 235.875C83.1085 235.875 49.25 217.715 49.25 195.312C49.25 172.91 83.1085 154.75 124.875 154.75ZM112.5 179.5C109.462 179.5 107 181.962 107 185C107 188.038 109.462 190.5 112.5 190.5C115.538 190.5 118 188.038 118 185C118 181.962 115.538 179.5 112.5 179.5ZM134.5 179.5C131.462 179.5 129 181.962 129 185C129 188.038 131.462 190.5 134.5 190.5C137.538 190.5 140 188.038 140 185C140 181.962 137.538 179.5 134.5 179.5Z" fill="#769173"/>
<ellipse cx="154.183" cy="122.347" rx="19.0378" ry="33.605" transform="rotate(19.8281 154.183 122.347)" fill="#769173"/>
<ellipse cx="176.023" cy="118.726" rx="15.7256" ry="31.8563" transform="rotate(-29.3103 176.023 118.726)" fill="#769173"/>
<ellipse cx="89.6957" cy="106.702" rx="19.0378" ry="50.2217" transform="rotate(-19.83 89.6957 106.702)" fill="#769173"/>
<path d="M124.875 130C144.932 130 164.167 136.808 178.35 148.928C192.532 161.047 200.5 177.485 200.5 194.625H49.25C49.25 177.485 57.218 161.048 71.4004 148.929C85.5828 136.809 104.818 130 124.875 130ZM112.5 179.5C109.462 179.5 107 181.962 107 185C107 188.038 109.462 190.5 112.5 190.5C115.538 190.5 118 188.038 118 185C118 181.962 115.538 179.5 112.5 179.5ZM134.5 179.5C131.462 179.5 129 181.962 129 185C129 188.038 131.462 190.5 134.5 190.5C137.538 190.5 140 188.038 140 185C140 181.962 137.538 179.5 134.5 179.5Z" fill="#769173"/>
</svg>
